<svg width="261" height="66" viewBox="0 0 261 66" fill="none" xmlns="http://www.w3.org/2000/svg">
<path d="M14.3241 65.28C14.8841 65.28 15.5241 65.2 16.0841 65.12C26.0041 63.44 30.0841 44.24 32.0041 36.56L33.2041 31.84L33.2841 31.6C33.2841 31.28 32.9641 31.04 32.7241 31.04C32.4841 31.04 32.2441 31.2 32.0841 31.52C31.6841 32.72 31.2841 34.4 30.8841 36.32C28.4041 46.16 24.4841 62.48 16.0041 64C9.44406 63.68 6.08406 48.4 6.08406 36.64C6.08406 31.2 6.64406 25.92 7.60406 21.04C9.44406 11.92 13.2041 1.52 19.8441 1.52C24.0841 1.6 25.6841 5.44 25.6841 9.52C25.6841 11.12 25.3641 12.72 24.8841 14C24.8041 14.24 24.6441 14.32 24.4841 14.32L23.6041 14.24C23.0441 14.24 22.2441 14.8 22.2441 15.76C22.2441 16.56 22.7241 17.28 23.5241 17.28C25.1241 17.28 26.8041 13.28 26.8041 9.6C26.8041 4.32 24.4041 0.319998 19.7641 0.319998C10.0041 0.559999 4.96406 9.76 2.16406 20.16C0.964063 25.12 0.164062 30.96 0.164062 36.88C0.164062 44 1.28406 51.28 4.08406 57.12C6.24406 61.52 9.52406 65.28 14.3241 65.28ZM37.6391 28.8C37.7991 24.8 38.1191 20.8 38.6791 17.2C39.7191 9.52 41.7191 2.4 44.5991 2.4H44.7591C47.0791 2.64 48.0391 4.64 48.0391 7.44C48.0391 8.4 47.8791 9.44 47.7191 10.48C46.5991 16.8 42.4391 25.04 37.6391 28.8ZM38.9991 54.4C39.4791 54.4 39.9591 54.32 40.3591 54.24C45.2391 53.04 50.5991 37.52 53.7191 31.92C53.7991 31.84 53.7991 31.68 53.7991 31.6C53.7991 31.36 53.7191 31.2 53.5591 31.12C53.3991 31.04 53.3191 31.04 53.2391 31.04C52.9991 31.04 52.8391 31.12 52.6791 31.36C49.6391 36.8 44.1991 52.24 39.9591 53.12C37.8791 52.4 37.5591 38.4 37.5591 32.56V30.32C42.8391 26.64 47.6391 17.76 48.8391 10.8C49.0791 9.6 49.1591 8.56 49.1591 7.52C49.1591 4.08 47.9591 1.6 44.9191 1.2L43.6391 1.12C41.9591 1.12 40.0391 1.44 38.9991 2.16C34.5191 5.44 32.0391 20.16 32.0391 33.2C32.0391 41.44 32.9991 49.04 35.1591 52.56C36.0391 53.92 37.5591 54.4 38.9991 54.4ZM59.1478 31.76C58.7478 31.76 58.2678 31.68 57.7878 31.36C58.5878 27.84 59.7078 25.12 60.7478 25.04C62.1878 25.28 62.7478 26.24 62.7478 27.44C62.7478 27.84 62.7478 28.24 62.5878 28.72C62.0278 30.24 60.6678 31.76 59.1478 31.76ZM59.8678 47.28C62.5078 47.12 64.7478 44.64 66.5878 41.6C68.6678 38.24 70.1878 34.24 71.0678 31.84V31.6C71.0678 31.44 71.0678 31.2 70.8278 31.12L70.5078 31.04C70.2678 31.04 70.0278 31.2 69.9478 31.44C68.8278 34.48 67.3078 38.08 65.5478 41.04C63.7078 44 61.8678 46.08 59.4678 46.08H59.0678C57.3078 45.92 56.8278 43.12 56.8278 40.08C56.8278 37.04 57.3078 33.68 57.5478 32.56C58.1078 32.8 58.6678 32.96 59.1478 32.96C61.3078 32.96 63.1478 30.96 63.7078 28.88C63.8678 28.4 63.9478 27.92 63.9478 27.36C63.9478 25.6 62.9878 24.08 60.8278 23.84L59.6278 23.76C58.8278 23.76 58.0278 23.92 57.3078 24.16C53.8678 25.52 51.7078 31.12 51.7078 36.48C51.7078 41.36 53.5478 46.08 57.7078 47.04C58.4278 47.2 59.1478 47.28 59.8678 47.28ZM83.9297 51.68C84.4097 51.68 84.8897 51.6 85.3697 51.44C89.0497 50.32 93.8497 36.16 95.9297 31.92C96.0097 31.76 96.0097 31.6 96.0097 31.6C96.0097 31.2 95.6097 31.04 95.4497 31.04C95.2097 31.04 95.0497 31.12 94.8897 31.36C92.9697 35.2 88.0097 49.36 85.0497 50.32C84.8897 50.32 84.6497 49.68 84.5697 48.8C84.4097 47.76 84.3297 46.4 84.3297 44.88C84.3297 38 85.6897 27.44 85.8497 25.92L85.9297 25.6C85.9297 24.24 84.7297 23.6 83.5297 23.6C82.4097 23.6 81.2897 24.16 81.0497 25.04L80.7297 26.56C80.0097 25.44 78.7297 24.4 77.4497 24.16L76.4097 24.08C71.6097 24.08 69.3697 31.28 68.9697 35.52L68.8897 37.52C68.8897 41.12 69.8497 45.44 73.5297 45.44L74.1697 45.36C76.4097 45.04 78.4097 39.12 79.9297 34.24C79.8497 35.68 79.6897 37.92 79.6897 40.32C79.6897 44.88 80.1697 49.92 82.0897 51.12C82.6497 51.52 83.2897 51.68 83.9297 51.68ZM74.0097 44.24L73.7697 44.16C73.6097 43.84 73.5297 43.12 73.5297 42.24C73.5297 37.44 75.6897 26.32 77.3697 25.36C78.0897 25.6 78.6497 26 79.2097 26.48C79.7697 27.04 80.1697 27.76 80.4097 28.56C79.5297 31.2 76.1697 44.24 74.0097 44.24ZM112.455 52.8C113.175 52.8 113.815 52.8 114.215 52.64C117.575 51.68 121.415 37.52 123.415 31.84L123.495 31.6C123.415 31.04 122.855 31.04 122.855 31.04C122.615 31.04 122.375 31.2 122.295 31.44C120.455 36.72 116.535 50.72 113.895 51.52L113.495 51.6C112.375 51.6 112.055 49.84 112.055 47.28C112.055 41.84 113.575 32.72 113.575 26.48C113.575 24.48 113.415 22.8 113.015 21.6C112.535 20.32 111.255 19.36 109.975 19.28H109.815C104.695 19.28 101.095 32.56 99.4153 39.92L99.8953 29.36C99.8953 28.08 98.7753 27.36 97.6553 27.28H97.4153C96.2153 27.28 95.0153 27.92 94.8553 29.2C94.6153 30.72 94.4553 34.32 94.4553 37.84C94.4553 41.44 94.6153 45.04 94.7753 46.56C94.9353 47.76 96.0553 48.32 97.0953 48.32C98.9353 48.32 99.0953 47.12 99.4153 45.6C100.455 40.56 104.215 21.6 109.335 20.56C109.495 20.64 109.495 20.96 109.495 21.52C109.495 24.88 107.495 35.84 107.495 43.84C107.495 47.92 107.975 51.2 109.655 52.32C110.215 52.64 111.415 52.8 112.455 52.8ZM157.827 60.96C159.107 60.88 160.387 60.16 160.387 59.04C160.067 54.4 159.987 49.84 159.987 45.2L160.067 36.8C162.067 24.24 166.867 2.64 174.147 2.48C177.587 2.48 178.387 8.48 178.387 13.6C178.387 20.16 177.107 28 175.187 33.36C172.467 33.6 170.067 34 168.467 34.88C166.227 36 165.347 37.68 165.347 39.2C165.347 41.04 166.627 42.48 169.027 42.48C170.067 42.48 173.187 42.4 174.947 41.2C177.187 39.52 179.107 37.04 180.627 34.16C185.267 33.84 189.987 33.6 192.947 32.24C193.187 32.08 193.267 31.92 193.267 31.68C193.267 31.36 193.027 31.04 192.707 31.04L192.467 31.12C189.827 32.32 185.507 32.64 181.267 32.88C183.427 28.08 184.787 21.76 184.787 15.92C184.787 11.44 183.987 7.28 182.147 4.32C180.467 1.68 178.227 1.36 175.507 1.36H174.227C167.347 1.36 162.787 15.92 160.387 28.48C160.627 23.2 161.187 14.96 161.907 11.36V10.96C161.907 9.6 160.307 9.28 159.107 9.28C157.667 9.28 156.307 9.92 156.227 10.72C154.867 19.6 154.227 28.96 154.227 38.56C154.227 45.52 154.547 52.48 155.187 59.44C155.187 60.56 156.307 60.96 157.507 60.96H157.827ZM168.867 41.28C167.347 41.2 166.467 40.4 166.467 39.2C166.467 37.92 167.507 36.72 169.027 35.92C170.627 35.12 172.787 34.8 174.627 34.56C174.067 36 173.427 37.2 172.707 38.16C171.827 39.28 170.227 41.12 168.867 41.28ZM197.952 28.8C198.112 24.8 198.432 20.8 198.992 17.2C200.032 9.52 202.032 2.4 204.912 2.4H205.072C207.392 2.64 208.352 4.64 208.352 7.44C208.352 8.4 208.192 9.44 208.032 10.48C206.912 16.8 202.752 25.04 197.952 28.8ZM199.312 54.4C199.792 54.4 200.272 54.32 200.672 54.24C205.552 53.04 210.912 37.52 214.032 31.92C214.112 31.84 214.112 31.68 214.112 31.6C214.112 31.36 214.032 31.2 213.872 31.12C213.712 31.04 213.632 31.04 213.552 31.04C213.312 31.04 213.152 31.12 212.992 31.36C209.952 36.8 204.512 52.24 200.272 53.12C198.192 52.4 197.872 38.4 197.872 32.56V30.32C203.152 26.64 207.952 17.76 209.152 10.8C209.392 9.6 209.472 8.56 209.472 7.52C209.472 4.08 208.272 1.6 205.232 1.2L203.952 1.12C202.272 1.12 200.352 1.44 199.312 2.16C194.832 5.44 192.352 20.16 192.352 33.2C192.352 41.44 193.312 49.04 195.472 52.56C196.352 53.92 197.872 54.4 199.312 54.4ZM227.38 54L228.26 53.92C232.26 53.76 236.42 40.08 238.26 34.24C238.58 33.04 238.82 32.16 238.98 31.84V31.6C238.98 31.44 238.98 31.28 238.74 31.12L238.42 31.04C238.18 31.04 237.94 31.2 237.86 31.44L237.06 33.84C235.38 39.44 231.38 52.56 228.26 52.72C227.94 52.4 227.78 50.4 227.78 47.68C227.78 41.04 228.5 30.24 228.82 28.24V28C228.82 26.96 227.86 26.32 226.82 26.16L226.18 26.08C225.22 26.08 224.42 26.56 224.1 27.52C222.74 32.24 219.46 43.52 217.3 45.2C217.14 44.96 217.06 44.08 217.06 42.88C217.06 39.2 217.62 32.48 217.78 31.28L217.86 29.76C217.86 28.56 217.54 27.68 215.62 27.6C214.42 27.6 213.14 28.08 212.98 29.52C212.9 30.16 212.58 33.92 212.58 37.76C212.58 41.52 212.9 45.28 214.34 46.24C214.66 46.48 215.46 46.64 216.26 46.64C216.74 46.64 217.22 46.56 217.62 46.4C219.46 45.44 221.86 38.8 223.54 33.36C223.46 34.88 223.22 38.32 223.22 42C223.22 47.2 223.7 52.8 225.7 53.68C226.18 53.92 226.82 54 227.38 54ZM243.902 59.04C248.142 58.48 251.742 53.6 252.622 48.24C252.702 47.44 252.782 46.64 252.782 45.84C252.782 43.28 252.142 40.64 250.542 38.48C253.582 35.84 256.862 33.6 259.822 32.16C260.062 32.08 260.142 31.84 260.142 31.68L260.062 31.36C259.982 31.2 259.822 31.04 259.582 31.04L259.342 31.12C256.302 32.56 252.942 34.88 249.742 37.6C246.462 33.92 241.022 31.76 240.862 28V27.76C240.862 25.36 243.102 24.24 245.102 24.24L246.062 24.32C247.502 24.56 248.622 25.36 248.622 26.72C248.622 27.92 247.422 27.12 247.022 28.24L246.942 28.64C246.942 29.12 247.262 29.44 247.582 29.6L247.982 29.68C248.462 29.68 248.942 29.44 249.262 28.8C249.662 28 249.822 27.28 249.822 26.64C249.822 24.8 248.302 23.44 246.142 23.12L245.182 23.04C241.422 23.04 237.662 26.24 237.662 30.08C237.662 30.64 237.742 31.28 237.902 31.84C239.102 35.6 243.662 37.36 246.382 40.72C243.182 43.92 239.982 47.84 238.702 51.92C238.462 52.64 238.382 53.36 238.382 54C238.382 57.04 240.542 59.04 243.262 59.04H243.902ZM243.182 57.84C240.942 57.84 239.582 56.16 239.582 54C239.582 53.52 239.582 53.04 239.742 52.56C240.862 48.48 245.342 43.52 247.102 41.68C248.142 43.36 248.542 45.12 248.542 46.96L248.462 48.16C248.382 51.92 247.182 56.64 244.222 57.76C243.822 57.84 243.502 57.84 243.182 57.84Z" fill="#0073C6"/>
</svg>
